<?xml version="1.0" encoding="UTF-8" standalone="no"?>
<!-- Created with Inkscape (http://www.inkscape.org/) -->
<svg
        xmlns:svg="http://www.w3.org/2000/svg"
        xmlns="http://www.w3.org/2000/svg"
        version="1.0"
        width="1014.7322"
        height="206.96457"
        id="svg39021">
    <defs
            id="defs39023"/>
    <g
            transform="translate(373.319,-545.4461)"
            id="layer1">
        <g
                transform="translate(7.083189,7.084215)"
                id="g40883">
            <path
                    d="M -276.92362,738.24226 C -330.14804,738.24226 -373.31901,695.08203 -373.31901,641.84147 C -373.31901,588.60091 -330.14804,545.44608 -276.92362,545.44608 C -223.69915,545.44608 -180.52822,588.60091 -180.52822,641.84147 C -180.52822,694.5122 -223.69915,738.24226 -276.92362,738.24226"
                    style="fill:#0f589f;fill-opacity:1;fill-rule:nonzero;stroke:none;stroke-width:0.156;stroke-linecap:butt;stroke-linejoin:miter;stroke-miterlimit:4;stroke-dasharray:none;stroke-opacity:1"
                    id="path38898"/>
            <path
                    d="M 241.50403,652.28744 C 247.04154,647.78755 250.1597,641.29847 248.76188,634.27179 C 248.00925,632.29334 246.34263,630.3149 244.46093,629.08373 C 237.68691,624.37956 226.34313,624.51398 219.4078,628.74502 C 211.93487,632.77183 207.63392,640.55119 208.27906,648.87894 C 208.76294,652.56164 212.20372,655.84111 215.64445,657.06688 C 224.35394,660.6152 234.62247,658.08836 241.50403,652.28744 L 256.18109,666.87846 C 247.68668,671.53426 237.74068,673.99119 228.27855,674.94816 C 214.67674,675.49116 201.29,673.58262 190.26875,667.02902 C 181.77438,661.84097 176.88202,652.97022 178.4411,642.80383 C 181.66685,625.26126 200.26852,613.59487 216.12833,609.90683 C 236.7192,606.22408 260.21324,607.86387 273.81501,625.12684 C 277.73967,630.72347 278.11601,639.25551 275.42791,645.59943 C 271.71833,655.36263 264.67546,662.21731 256.18109,666.87846 L 241.50403,652.28744"
                    style="fill:#0f589f;fill-rule:nonzero;stroke:none;stroke-width:0.156;stroke-linecap:butt;stroke-linejoin:miter;stroke-miterlimit:4;stroke-dasharray:none"
                    id="path38900"/>
            <path
                    d="M 468.27242,674.6041 L 483.16452,609.70249 L 509.07786,609.70249 L 498.91683,654.98629 C 499.02432,655.39491 499.29317,655.87339 499.72323,655.93791 L 537.41047,655.93791 L 533.10951,674.6041 L 468.27242,674.6041"
                    style="fill:#0f589f;fill-rule:nonzero;stroke:none;stroke-width:0.156;stroke-linecap:butt;stroke-linejoin:miter;stroke-miterlimit:4;stroke-dasharray:none"
                    id="path38902"/>
            <path
                    d="M 100.96999,630.36327 L 106.56123,609.70249 L 186.82802,609.70249 L 181.55931,630.02456 L 155.00087,630.02456 L 154.51699,630.63747 L 142.42053,674.70085 L 116.50723,674.70085 L 128.17358,631.59443 C 128.33489,630.96543 127.90478,630.43318 127.1521,630.36327 L 100.96999,630.36327"
                    style="fill:#0f589f;fill-rule:nonzero;stroke:none;stroke-width:0.156;stroke-linecap:butt;stroke-linejoin:miter;stroke-miterlimit:4;stroke-dasharray:none"
                    id="path38904"/>
            <path
                    d="M -15.424896,674.70085 L -41.284473,674.70085 L -32.252414,640.59421 C -32.306183,640.38988 -32.521259,640.45979 -32.736292,640.45979 L -60.262489,674.70085 L -74.509399,674.70085 L -82.842549,639.77702 C -82.842549,639.66413 -83.057581,639.41682 -83.165119,639.43292 C -83.272657,639.44906 -83.648953,639.60497 -83.864029,640.25011 C -84.079061,640.90064 -93.218614,674.70085 -93.218614,674.70085 L -114.50839,674.70085 L -96.605625,609.70249 L -62.090373,609.70249 L -55.316351,637.6588 L -32.897555,609.70249 L 2.3165632,609.70249 L -15.424896,674.70085"
                    style="fill:#0f589f;fill-rule:nonzero;stroke:none;stroke-width:0.156;stroke-linecap:butt;stroke-linejoin:miter;stroke-miterlimit:4;stroke-dasharray:none"
                    id="path38906"/>
            <path
                    d="M 432.57443,652.28744 C 438.11194,647.78755 441.28387,641.29847 439.83228,634.27179 C 439.07965,632.29334 437.46675,630.3149 435.53133,629.08373 C 428.75731,624.37956 417.4673,624.51398 410.4782,628.74502 C 403.05904,632.77183 398.75809,640.55119 399.34946,648.87894 C 399.83333,652.56164 403.32784,655.84111 406.71485,657.06688 C 415.47806,660.6152 425.69287,658.08836 432.57443,652.28744 L 447.30522,666.87846 C 438.75708,671.53426 428.86485,673.99119 419.34895,674.94816 C 405.74714,675.49116 392.41417,673.58262 381.33915,667.02902 C 372.89851,661.84097 367.95241,652.97022 369.5115,642.80383 C 372.73725,625.26126 391.39269,613.59487 407.19873,609.90683 C 427.84337,606.22408 451.28364,607.86387 464.88541,625.12684 C 468.81007,630.72347 469.18641,639.25551 466.49831,645.59943 C 462.84245,655.36263 455.79963,662.21731 447.30522,666.87846 L 432.57443,652.28744"
                    style="fill:#0f589f;fill-rule:nonzero;stroke:none;stroke-width:0.156;stroke-linecap:butt;stroke-linejoin:miter;stroke-miterlimit:4;stroke-dasharray:none"
                    id="path38908"/>
            <path
                    d="M 64.089212,652.28744 C 69.572908,647.78755 72.744887,641.29847 71.293298,634.27179 C 70.540664,632.29334 68.927767,630.3149 66.992345,629.08373 C 60.218323,624.37956 48.928315,624.51398 41.939217,628.74502 C 34.520054,632.77183 30.2191,640.55119 30.810472,648.87894 C 31.29435,652.56164 34.788855,655.84111 38.175866,657.06688 C 46.93908,660.6152 57.153882,658.08836 64.089212,652.28744 L 78.766231,666.87846 C 70.271818,671.53426 60.325861,673.99119 50.809968,674.94816 C 37.261924,675.49116 23.875187,673.58262 12.800167,667.02902 C 4.3595237,661.84097 -0.58657027,652.97022 1.0262817,642.80383 C 4.1982606,625.26126 22.853706,613.59487 38.659744,609.90683 C 59.304381,606.22408 82.744613,607.86387 96.346427,625.12684 C 100.32481,630.72347 100.64742,639.25551 98.013048,645.59943 C 94.303466,655.36263 87.260643,662.21731 78.766231,666.87846 L 64.089212,652.28744"
                    style="fill:#0f589f;fill-rule:nonzero;stroke:none;stroke-width:0.156;stroke-linecap:butt;stroke-linejoin:miter;stroke-miterlimit:4;stroke-dasharray:none"
                    id="path38910"/>
            <path
                    d="M 323.38367,626.51927 L 312.09362,626.56229 L 309.45928,637.88997 L 335.15755,637.88997 C 337.52308,637.55126 339.24347,636.76635 341.07136,634.92228 C 342.57672,633.41697 343.32939,631.16972 342.52295,629.0515 C 341.87781,627.68591 340.26495,626.61067 339.24347,626.46015 L 323.38367,626.51927 L 322.68476,609.70249 L 352.46895,609.70249 C 357.84515,609.70249 362.95255,611.95514 366.28579,615.29912 C 370.37171,619.26141 371.01686,626.08381 368.86636,631.20195 C 366.17826,638.29855 358.86663,643.1425 352.25387,645.59943 C 351.98507,645.87362 351.3937,646.21773 351.87758,646.55639 C 355.10328,647.92198 358.97417,650.17462 359.7268,653.92718 C 360.90959,658.97546 359.08166,664.06133 358.75909,668.84077 C 358.70532,671.22783 360.58702,673.27614 362.25364,674.70085 L 333.22213,674.70085 C 331.93185,674.43205 330.69529,673.46433 330.10392,672.23317 C 329.67381,671.27086 329.51255,670.17407 329.56632,669.00747 L 330.42649,660.47543 C 330.37272,657.87333 328.9749,655.52929 325.53412,655.42714 L 305.05079,655.42714 L 304.45942,655.65832 L 299.99716,674.70085 L 275.58917,674.70085 C 280.69657,653.13687 286.28785,631.13209 291.61029,609.70249 L 322.68476,609.70249 L 323.38367,626.51927"
                    style="fill:#0f589f;fill-rule:nonzero;stroke:none;stroke-width:0.156;stroke-linecap:butt;stroke-linejoin:miter;stroke-miterlimit:4;stroke-dasharray:none"
                    id="path38912"/>
            <path
                    d="M 588.16186,646.55639 L 578.5922,646.55639 L 589.55968,630.32564 C 589.72095,630.23424 589.98975,630.27727 590.04352,630.48155 L 593.86064,646.55639 L 588.16186,646.55639 L 590.90373,663.10436 L 597.46268,663.10436 C 597.67776,663.08287 597.83902,663.29256 597.89279,663.55061 L 600.52712,674.70085 L 627.24687,674.70085 L 612.35477,609.70249 L 580.04379,609.70249 L 538.16314,674.70085 L 559.72172,674.70085 L 567.51723,663.10436 L 590.90373,663.10436 L 588.16186,646.55639"
                    style="fill:#0f589f;fill-rule:nonzero;stroke:none;stroke-width:0.156;stroke-linecap:butt;stroke-linejoin:miter;stroke-miterlimit:4;stroke-dasharray:none"
                    id="path38914"/>
            <path
                    d="M -276.92362,662.0399 L -247.9996,566.04234 L -211.11882,689.26498 L -216.92513,689.26498 C -216.92513,689.26498 -219.02186,682.96409 -220.74225,677.21694 C -229.18289,649.6746 -239.9353,638.90071 -255.84887,644.77688 C -259.82726,646.23922 -265.4723,651.43802 -268.69801,656.71743 C -271.43988,661.18508 -275.57957,668.89454 -276.92362,674.91592 C -278.26767,668.89454 -282.46109,661.18508 -285.14919,656.71743 C -288.37493,651.43802 -294.01994,646.23922 -297.99832,644.77688 C -313.9119,638.90071 -324.66435,649.6746 -333.10499,677.21694 C -334.82538,682.96409 -336.92206,689.26498 -336.92206,689.26498 L -342.67461,689.26498 L -305.84759,566.04234 L -276.92362,662.0399"
                    style="fill:white;fill-rule:nonzero;stroke:none;stroke-width:0.156;stroke-linecap:butt;stroke-linejoin:miter;stroke-miterlimit:4;stroke-dasharray:none"
                    id="path38896"/>
        </g>
    </g>
</svg>
